<svg xmlns="http://www.w3.org/2000/svg" viewBox="0 0 32 32">
  <rect x="1" y="1" width="6" height="6" rx="1" fill="#60a5fa"/>
  <rect x="9" y="1" width="6" height="6" rx="1" fill="#60a5fa"/>
  <rect x="17" y="1" width="6" height="6" rx="1" fill="#60a5fa"/>
  <rect x="25" y="1" width="6" height="6" rx="1" fill="#60a5fa"/>

  <rect x="1" y="9" width="6" height="6" rx="1" fill="#60a5fa"/>
  <rect x="9" y="9" width="6" height="6" rx="1" fill="#4ade80"/>
  <rect x="17" y="9" width="6" height="6" rx="1" fill="#e5e7eb"/>
  <rect x="25" y="9" width="6" height="6" rx="1" fill="#e5e7eb"/>

  <rect x="1" y="17" width="6" height="6" rx="1" fill="#e5e7eb"/>
  <rect x="9" y="17" width="6" height="6" rx="1" fill="#e5e7eb"/>
  <rect x="17" y="17" width="6" height="6" rx="1" fill="#e5e7eb"/>
  <rect x="25" y="17" width="6" height="6" rx="1" fill="#e5e7eb"/>

  <rect x="1" y="25" width="6" height="6" rx="1" fill="#e5e7eb"/>
  <rect x="9" y="25" width="6" height="6" rx="1" fill="#e5e7eb"/>
  <rect x="17" y="25" width="6" height="6" rx="1" fill="#e5e7eb"/>
  <rect x="25" y="25" width="6" height="6" rx="1" fill="#e5e7eb"/>
</svg>
